<svg width="68" height="60" viewBox="0 0 68 60" fill="none" xmlns="http://www.w3.org/2000/svg">
<path d="M63.9998 59.4784H3.99984C3.11578 59.4784 2.26794 59.1348 1.64281 58.5233C1.01769 57.9118 0.666504 57.0823 0.666504 56.2175V31.7186C0.666452 31.2526 0.768474 30.7921 0.965696 30.368C1.16292 29.9439 1.45076 29.566 1.80984 29.2599L13.9998 18.861V4.04358C13.9998 3.17875 14.351 2.34933 14.9761 1.7378C15.6013 1.12627 16.4491 0.782715 17.3332 0.782715H63.9998C64.8839 0.782715 65.7317 1.12627 66.3569 1.7378C66.982 2.34933 67.3332 3.17875 67.3332 4.04358V56.2175C67.3332 57.0823 66.982 57.9118 66.3569 58.5233C65.7317 59.1348 64.8839 59.4784 63.9998 59.4784ZM23.9998 52.9566H33.9998V33.2023L20.6665 21.8284L7.33317 33.2023V52.9566H17.3332V39.9132H23.9998V52.9566ZM40.6665 52.9566H60.6665V7.30445H20.6665V14.2403C21.4465 14.2403 22.2298 14.5077 22.8565 15.0458L39.5232 29.2599C39.8822 29.566 40.1701 29.9439 40.3673 30.368C40.5645 30.7921 40.6666 31.2526 40.6665 31.7186V52.9566ZM47.3332 26.8697H53.9998V33.3914H47.3332V26.8697ZM47.3332 39.9132H53.9998V46.4349H47.3332V39.9132ZM47.3332 13.8262H53.9998V20.3479H47.3332V13.8262ZM33.9998 13.8262H40.6665V20.3479H33.9998V13.8262Z" fill="#132F37"/>
</svg>
