<svg width="36" height="36" viewBox="0 0 36 36" fill="none" xmlns="http://www.w3.org/2000/svg">
<rect x="0.5" y="0.5" width="35" height="35" rx="17.5" stroke="#2E2E1F" stroke-opacity="0.12"/>
<g clip-path="url(#clip0_3254_705)">
<path d="M11.3962 13.3158C11.323 13.2352 11.2747 13.1352 11.2573 13.0277C11.2398 12.9203 11.2539 12.8101 11.2978 12.7105C11.3417 12.611 11.4136 12.5263 11.5047 12.4667C11.5958 12.4071 11.7022 12.3753 11.811 12.375H24.186C24.295 12.375 24.4016 12.4067 24.4929 12.4661C24.5842 12.5256 24.6563 12.6103 24.7004 12.7099C24.7445 12.8095 24.7587 12.9198 24.7413 13.0274C24.7238 13.135 24.6756 13.2351 24.6023 13.3158L19.8393 18.4001C19.7417 18.5043 19.6874 18.6419 19.6874 18.7847V22.6863C19.6875 22.779 19.6647 22.8702 19.621 22.9519C19.5774 23.0336 19.5142 23.1032 19.4371 23.1546L17.1871 24.6544C17.1025 24.7112 17.004 24.744 16.9021 24.7492C16.8003 24.7544 16.699 24.7318 16.609 24.6838C16.519 24.6359 16.4438 24.5643 16.3913 24.4769C16.3388 24.3895 16.3111 24.2895 16.311 24.1875V18.7847C16.3111 18.6419 16.2568 18.5043 16.1592 18.4001L11.3962 13.3158Z" stroke="#DE5741" stroke-width="1.125" stroke-linecap="round" stroke-linejoin="round"/>
</g>
<defs>
<clipPath id="clip0_3254_705">
<rect width="18" height="18" fill="white" transform="translate(9 9)"/>
</clipPath>
</defs>
</svg>
