<svg width="36" height="36" viewBox="0 0 36 36" fill="none" xmlns="http://www.w3.org/2000/svg">
<rect x="0.5" y="0.5" width="35" height="35" rx="17.5" stroke="#2E2E1F" stroke-opacity="0.12"/>
<g clip-path="url(#clip0_3254_686)">
<path d="M18 24.75C21.7279 24.75 24.75 21.7279 24.75 18C24.75 14.2721 21.7279 11.25 18 11.25C14.2721 11.25 11.25 14.2721 11.25 18C11.25 21.7279 14.2721 24.75 18 24.75Z" stroke="#DE5741" stroke-width="1.125" stroke-linecap="round" stroke-linejoin="round"/>
<path d="M15.1875 18.0001C15.1875 20.634 16.1248 22.9867 17.5978 24.5736C17.649 24.6293 17.7112 24.6737 17.7804 24.7041C17.8496 24.7345 17.9244 24.7502 18 24.7502C18.0756 24.7502 18.1504 24.7345 18.2196 24.7041C18.2888 24.6737 18.351 24.6293 18.4022 24.5736C19.8752 22.9867 20.8125 20.634 20.8125 18.0001C20.8125 15.3662 19.8752 13.0135 18.4022 11.4266C18.351 11.3709 18.2888 11.3265 18.2196 11.2961C18.1504 11.2657 18.0756 11.25 18 11.25C17.9244 11.25 17.8496 11.2657 17.7804 11.2961C17.7112 11.3265 17.649 11.3709 17.5978 11.4266C16.1248 13.0135 15.1875 15.3662 15.1875 18.0001Z" stroke="#DE5741" stroke-width="1.125" stroke-linecap="round" stroke-linejoin="round"/>
<path d="M11.6328 15.75H24.365" stroke="#DE5741" stroke-width="1.125" stroke-linecap="round" stroke-linejoin="round"/>
<path d="M11.6328 20.25H24.365" stroke="#DE5741" stroke-width="1.125" stroke-linecap="round" stroke-linejoin="round"/>
</g>
<defs>
<clipPath id="clip0_3254_686">
<rect width="18" height="18" fill="white" transform="translate(9 9)"/>
</clipPath>
</defs>
</svg>
