<svg width="40" height="35" viewBox="0 0 40 35" fill="none" xmlns="http://www.w3.org/2000/svg">
<path d="M37.2499 34.375H2.74992C2.24159 34.375 1.75408 34.1775 1.39463 33.8258C1.03519 33.4742 0.833252 32.9973 0.833252 32.5V18.4131C0.833222 18.1452 0.891884 17.8804 1.00529 17.6365C1.11869 17.3927 1.2842 17.1754 1.49067 16.9994L8.49992 11.02V2.5C8.49992 2.00272 8.70185 1.52581 9.0613 1.17417C9.42074 0.822544 9.90825 0.625 10.4166 0.625H37.2499C37.7583 0.625 38.2458 0.822544 38.6052 1.17417C38.9647 1.52581 39.1666 2.00272 39.1666 2.5V32.5C39.1666 32.9973 38.9647 33.4742 38.6052 33.8258C38.2458 34.1775 37.7583 34.375 37.2499 34.375ZM14.2499 30.625H19.9999V19.2663L12.3333 12.7263L4.66659 19.2663V30.625H10.4166V23.125H14.2499V30.625ZM23.8333 30.625H35.3333V4.375H12.3333V8.36312C12.7818 8.36312 13.2322 8.51688 13.5925 8.82625L23.1758 16.9994C23.3823 17.1754 23.5478 17.3927 23.6612 17.6365C23.7746 17.8804 23.8333 18.1452 23.8333 18.4131V30.625ZM27.6666 15.625H31.4999V19.375H27.6666V15.625ZM27.6666 23.125H31.4999V26.875H27.6666V23.125ZM27.6666 8.125H31.4999V11.875H27.6666V8.125ZM19.9999 8.125H23.8333V11.875H19.9999V8.125Z" fill="#DE5741"/>
</svg>
