<svg width="36" height="36" viewBox="0 0 36 36" fill="none" xmlns="http://www.w3.org/2000/svg">
<rect x="0.5" y="0.5" width="35" height="35" rx="17.5" stroke="#2E2E1F" stroke-opacity="0.12"/>
<g clip-path="url(#clip0_3254_696)">
<path d="M15.75 20.25L20.25 15.75" stroke="#DE5741" stroke-width="1.125" stroke-linecap="round" stroke-linejoin="round"/>
<path d="M16.875 14.352L18.9886 12.2426C19.6233 11.6182 20.479 11.2698 21.3693 11.2735C22.2596 11.2771 23.1125 11.6324 23.7421 12.262C24.3716 12.8915 24.7269 13.7444 24.7305 14.6347C24.7342 15.525 24.3858 16.3807 23.7614 17.0154L21.6478 19.1255" stroke="#DE5741" stroke-width="1.125" stroke-linecap="round" stroke-linejoin="round"/>
<path d="M14.352 16.875L12.2426 18.9886C11.6182 19.6233 11.2698 20.479 11.2735 21.3693C11.2771 22.2596 11.6324 23.1125 12.262 23.7421C12.8915 24.3716 13.7444 24.7269 14.6347 24.7305C15.525 24.7342 16.3807 24.3858 17.0154 23.7614L19.1255 21.6478" stroke="#DE5741" stroke-width="1.125" stroke-linecap="round" stroke-linejoin="round"/>
</g>
<defs>
<clipPath id="clip0_3254_696">
<rect width="18" height="18" fill="white" transform="translate(9 9)"/>
</clipPath>
</defs>
</svg>
