<svg width="37" height="40" viewBox="0 0 37 40" fill="none" xmlns="http://www.w3.org/2000/svg">
<path d="M33.6557 26.4999L35.9095 27.8518C36.0485 27.935 36.1636 28.0529 36.2435 28.1939C36.3234 28.3348 36.3654 28.4941 36.3654 28.6562C36.3654 28.8182 36.3234 28.9775 36.2435 29.1185C36.1636 29.2595 36.0485 29.3773 35.9095 29.4605L19.4657 39.3268C19.1741 39.502 18.8403 39.5946 18.5001 39.5946C18.1599 39.5946 17.8261 39.502 17.5345 39.3268L1.09072 29.4605C0.951681 29.3773 0.836592 29.2595 0.756681 29.1185C0.67677 28.9775 0.634766 28.8182 0.634766 28.6562C0.634766 28.4941 0.67677 28.3348 0.756681 28.1939C0.836592 28.0529 0.951681 27.935 1.09072 27.8518L3.34447 26.4999L18.5001 35.5937L33.6557 26.4999ZM33.6557 17.6874L35.9095 19.0393C36.0485 19.1225 36.1636 19.2404 36.2435 19.3814C36.3234 19.5223 36.3654 19.6816 36.3654 19.8437C36.3654 20.0057 36.3234 20.165 36.2435 20.306C36.1636 20.447 36.0485 20.5648 35.9095 20.648L18.5001 31.0937L1.09072 20.648C0.951681 20.5648 0.836592 20.447 0.756681 20.306C0.67677 20.165 0.634766 20.0057 0.634766 19.8437C0.634766 19.6816 0.67677 19.5223 0.756681 19.3814C0.836592 19.2404 0.951681 19.1225 1.09072 19.0393L3.34447 17.6874L18.5001 26.7812L33.6557 17.6874ZM19.4638 0.454292L35.9095 10.3205C36.0485 10.4038 36.1636 10.5216 36.2435 10.6626C36.3234 10.8036 36.3654 10.9629 36.3654 11.1249C36.3654 11.287 36.3234 11.4462 36.2435 11.5872C36.1636 11.7282 36.0485 11.8461 35.9095 11.9293L18.5001 22.3749L1.09072 11.9293C0.951681 11.8461 0.836592 11.7282 0.756681 11.5872C0.67677 11.4462 0.634766 11.287 0.634766 11.1249C0.634766 10.9629 0.67677 10.8036 0.756681 10.6626C0.836592 10.5216 0.951681 10.4038 1.09072 10.3205L17.5345 0.454292C17.8261 0.279085 18.1599 0.186523 18.5001 0.186523C18.8403 0.186523 19.1741 0.279085 19.4657 0.454292H19.4638ZM18.5001 4.24742L7.03822 11.1249L18.5001 18.0024L29.962 11.1249L18.5001 4.24742Z" fill="#DE5741"/>
</svg>
